<svg width="94" height="105" viewBox="0 0 94 105" fill="none" xmlns="http://www.w3.org/2000/svg">
<path fill-rule="evenodd" clip-rule="evenodd" d="M0.45459 0.0722046V2.83156H3.19256V33.1845H5.93053V66.2968H8.66849V93.8904H16.8824V96.6497H25.0963V99.4091H36.0482V102.168H44.2621V104.928H49.738V102.168H57.9519V99.4091H68.9038V96.6497H77.1177V93.8904H85.3316V66.2968H88.0696V35.9439H90.8075V5.59092H93.5455V0.0722046H0.45459ZM52.476 82.853V80.0936H63.4279V77.3342H68.9038V74.5749H71.6418V44.2219H74.3797V19.3877H19.6204V30.4251H63.4279V41.4626H33.3102V52.5H60.6899V69.0562H52.476V71.8155H41.5241V69.0562H33.3102V58.0187H22.3583V74.5749H25.0963V77.3342H33.3102V80.0936H41.5241V82.853H52.476Z" fill="#FF73D4"/>
</svg>
