<svg width="106" height="105" viewBox="0 0 106 105" fill="none" xmlns="http://www.w3.org/2000/svg">
<path d="M47.5241 0.0722046V2.83156H44.7861V5.59092H42.0482V8.35028H39.3102V13.869H42.0482V16.6284H44.7861V19.3877H47.5241V22.1471H55.738V24.9064H58.476V27.6658H61.2139V35.9439H63.9519V38.7032H66.6899V41.4626H69.4278V44.2219H77.6417V46.9813H80.3797V49.7407H83.1177V55.2594H80.3797V58.0187H77.6417V60.7781H72.1658V58.0187H69.4278V55.2594H66.6899V46.9813H63.9519V44.2219H61.2139V41.4626H58.476V38.7032H55.738V66.2968H58.476V69.0562H61.2139V77.3342H58.476V80.0936H55.738V82.853H50.2621V80.0936H47.5241V77.3342H44.7861V69.0562H47.5241V66.2968H50.2621V35.9439H47.5241V33.1845H44.7861V24.9064H42.0482V22.1471H39.3102V19.3877H36.5722V16.6284H31.0963V19.3877H28.3583V22.1471H25.6203V24.9064H22.8824V27.6658H20.1444V30.4251H17.4064V33.1845H14.6685V35.9439H11.9305V38.7032H9.19254V41.4626H6.45457V44.2219H3.71661V46.9813H0.978638V55.2594H3.71661V58.0187H6.45457V60.7781H9.19254V63.5374H11.9305V66.2968H14.6685V69.0562H17.4064V71.8155H20.1444V74.5749H22.8824V77.3342H25.6203V80.0936H28.3583V82.853H31.0963V85.6123H33.8343V88.3717H36.5722V91.131H39.3102V93.8904H42.0482V96.6497H44.7861V99.4091H47.5241V102.168H50.2621V104.928H55.738V102.168H58.476V99.4091H61.2139V96.6497H63.9519V93.8904H66.6899V91.131H69.4278V88.3717H72.1658V85.6123H74.9038V82.853H77.6417V80.0936H80.3797V77.3342H83.1177V74.5749H85.8556V71.8155H88.5936V69.0562H91.3316V66.2968H94.0695V63.5374H96.8075V60.7781H99.5455V58.0187H102.283V55.2594H105.021V46.9813H102.283V44.2219H99.5455V41.4626H96.8075V38.7032H94.0695V35.9439H91.3316V33.1845H88.5936V30.4251H85.8556V27.6658H83.1177V24.9064H80.3797V22.1471H77.6417V19.3877H74.9038V16.6284H72.1658V13.869H69.4278V11.1096H66.6899V8.35028H63.9519V5.59092H61.2139V2.83156H58.476V0.0722046H47.5241Z" fill="#FF73D4"/>
</svg>
