<svg width="49" height="47" viewBox="0 0 49 47" fill="none" xmlns="http://www.w3.org/2000/svg">
<path d="M15.3524 31.4908H13.5302V29.6676H15.3524V31.4908Z" fill="#F31D9E"/>
<path fill-rule="evenodd" clip-rule="evenodd" d="M4.41882 0.496658H46.3308V4.14303H48.1531V42.4299H46.3308V44.2531H44.5086V46.0763H2.59651L2.59656 42.4299H0.774292V4.14303H2.59651V2.31984L4.41882 2.31985V0.496658ZM31.7528 40.6068V38.7836L35.3973 38.7836V36.9604H37.2196V35.1372L39.0418 35.1372V33.314L40.8641 33.314V29.6676H42.6864L42.6864 18.7285H40.8641L40.8641 15.0821H39.0418L39.0419 11.4358H37.2196L37.2196 9.61259H33.575V7.7894H28.1082V5.96622H22.6415V7.7894H17.1746V9.61259H13.5302V11.4358H11.7079V13.259H9.88562V16.9053H8.06331V29.6676H9.88562V33.314L11.7079 33.314V35.1372L13.5302 35.1372V36.9604H15.3524V38.7836L18.9969 38.7836V40.6068H20.8192L20.8192 35.1372H15.3524L15.3524 31.4908H17.1746V33.314H20.8192V31.4908H22.6414L22.6415 29.6676H17.1747L17.1746 27.8445H15.3524L15.3524 24.1981H13.5302V20.5517L15.3524 20.5517V13.259H18.9969V15.0821H31.7528V13.259H35.3973V20.5517L37.2196 20.5517V26.0213H35.3973V27.8445H33.575V29.6676H28.1082V31.4908H29.9305V40.6068H31.7528Z" fill="#F31D9E"/>
<path class="inside" d="M15.3524 31.4908H13.5302V29.6676H15.3524V31.4908Z" fill="white"/>
<path class="inside" d="M31.7528 40.6068V38.7836L35.3973 38.7836V36.9604H37.2196V35.1372L39.0418 35.1372V33.314L40.8641 33.314V29.6676H42.6864L42.6864 18.7285H40.8641L40.8641 15.0821H39.0418L39.0419 11.4358H37.2196L37.2196 9.61259H33.575V7.7894H28.1082V5.96622H22.6415V7.7894H17.1746V9.61259H13.5302V11.4358H11.7079V13.259H9.88562V16.9053H8.06331V29.6676H9.88562V33.314L11.7079 33.314V35.1372L13.5302 35.1372V36.9604H15.3524V38.7836L18.9969 38.7836V40.6068H20.8192L20.8192 35.1372H15.3524L15.3524 31.4908H13.5302V29.6676H15.3524V31.4908H17.1746V33.314H20.8192V31.4908H22.6414L22.6415 29.6676H17.1747L17.1746 27.8445H15.3524L15.3524 24.1981H13.5302V20.5517L15.3524 20.5517V13.259H18.9969V15.0821H31.7528V13.259H35.3973V20.5517L37.2196 20.5517V26.0213H35.3973V27.8445H33.575V29.6676H28.1082V31.4908H29.9305V40.6068H31.7528Z" fill="white"/>
</svg>
