<svg width="61" height="61" viewBox="0 0 61 61" fill="none" xmlns="http://www.w3.org/2000/svg">
<g clip-path="url(#clip0)">
<g filter="url(#filter0d)">
<path d="M18.7228 40.1922H16.4046V37.8729H18.7228V40.1922Z" fill="#F31D9E"/>
<path fill-rule="evenodd" clip-rule="evenodd" d="M4.81364 0.762955H58.1321V5.40169H60.4503V54.1085H58.1321V56.4278H55.814V58.7472H2.49538L2.49544 54.1085H0.177246V5.40169H2.49538V3.08232L4.81364 3.08233V0.762955ZM39.5866 51.7891V49.4697L44.223 49.4697V47.1503H46.5412V44.831L48.8594 44.831V42.5116L51.1776 42.5116V37.8729H53.4958L53.4958 23.9567H51.1776L51.1776 19.3179H48.8594L48.8594 14.6792H46.5412L46.5412 12.3598H41.9048V10.0404H34.9502V7.72107H27.9956V10.0404H21.041V12.3598H16.4046V14.6792H14.0864V16.9985H11.7682V21.6373H9.44998V37.8729H11.7682V42.5116L14.0864 42.5116V44.831L16.4046 44.831V47.1503H18.7228V49.4697L23.3592 49.4697V51.7891H25.6774L25.6774 44.831H18.7228L18.7228 40.1922H21.041V42.5116H25.6774V40.1922H27.9956L27.9956 37.8729H21.041L21.041 35.5535H18.7228L18.7228 30.9148H16.4046V26.276L18.7228 26.276V16.9985H23.3592V19.3179H39.5866V16.9985H44.223V26.276L46.5412 26.276V33.2341H44.223V35.5535H41.9048V37.8729H34.9502V40.1922H37.2684V51.7891H39.5866Z" fill="#F31D9E"/>
</g>
<g filter="url(#filter1d)">
<path class="inside" d="M18.7228 40.1922H16.4046V37.8729H18.7228V40.1922Z" fill="white"/>
<path class="inside" d="M39.5866 51.7891V49.4697L44.223 49.4697V47.1503H46.5412V44.831L48.8594 44.831V42.5116L51.1776 42.5116V37.8729H53.4958L53.4958 23.9567H51.1776L51.1776 19.3179H48.8594L48.8594 14.6792H46.5412L46.5412 12.3598H41.9048V10.0404H34.9502V7.72107H27.9956V10.0404H21.041V12.3598H16.4046V14.6792H14.0864V16.9985H11.7682V21.6373H9.44998V37.8729H11.7682V42.5116L14.0864 42.5116V44.831L16.4046 44.831V47.1503H18.7228V49.4697L23.3592 49.4697V51.7891H25.6774L25.6774 44.831H18.7228L18.7228 40.1922H16.4046V37.8729H18.7228V40.1922H21.041V42.5116H25.6774V40.1922H27.9956L27.9956 37.8729H21.041L21.041 35.5535H18.7228L18.7228 30.9148H16.4046V26.276L18.7228 26.276V16.9985H23.3592V19.3179H39.5866V16.9985H44.223V26.276L46.5412 26.276V33.2341H44.223V35.5535H41.9048V37.8729H34.9502V40.1922H37.2684V51.7891H39.5866Z" fill="white"/>
</g>
</g>
<defs>
<filter id="filter0d" x="0.177246" y="0.762955" width="62.2731" height="59.9842" filterUnits="userSpaceOnUse" color-interpolation-filters="sRGB">
<feFlood flood-opacity="0" result="BackgroundImageFix"/>
<feColorMatrix in="SourceAlpha" type="matrix" values="0 0 0 0 0 0 0 0 0 0 0 0 0 0 0 0 0 0 127 0" result="hardAlpha"/>
<feOffset dx="2" dy="2"/>
<feComposite in2="hardAlpha" operator="out"/>
<feColorMatrix type="matrix" values="0 0 0 0 0 0 0 0 0 0 0 0 0 0 0 0 0 0 1 0"/>
<feBlend mode="normal" in2="BackgroundImageFix" result="effect1_dropShadow"/>
<feBlend mode="normal" in="SourceGraphic" in2="effect1_dropShadow" result="shape"/>
</filter>
<filter id="filter1d" x="0.177246" y="0.762955" width="62.2731" height="59.9842" filterUnits="userSpaceOnUse" color-interpolation-filters="sRGB">
<feFlood flood-opacity="0" result="BackgroundImageFix"/>
<feColorMatrix in="SourceAlpha" type="matrix" values="0 0 0 0 0 0 0 0 0 0 0 0 0 0 0 0 0 0 127 0" result="hardAlpha"/>
<feOffset dx="2" dy="2"/>
<feComposite in2="hardAlpha" operator="out"/>
<feColorMatrix type="matrix" values="0 0 0 0 0 0 0 0 0 0 0 0 0 0 0 0 0 0 1 0"/>
<feBlend mode="normal" in2="BackgroundImageFix" result="effect1_dropShadow"/>
<feBlend mode="normal" in="SourceGraphic" in2="effect1_dropShadow" result="shape"/>
</filter>
<clipPath id="clip0">
<rect width="60.2731" height="60.2731" fill="white" transform="translate(0.177246)"/>
</clipPath>
</defs>
</svg>
