<svg width="61" height="61" viewBox="0 0 61 61" fill="none" xmlns="http://www.w3.org/2000/svg">
<g clip-path="url(#clip9)">
<path d="M18.4616 40.8H16.1539V38.4H18.4616V40.8Z" fill="#F31D9E"/>
<path fill-rule="evenodd" clip-rule="evenodd" d="M4.61539 0H57.6922V4.8H60V55.2H57.6922V57.6H55.3846V60H2.30763L2.30769 55.2H0V4.8H2.30763V2.39999L4.61539 2.4V0ZM39.2307 52.8V50.4L43.8461 50.4V48H46.1539V45.6L48.4615 45.6V43.2L50.7693 43.2V38.4H53.0769L53.077 24H50.7693L50.7692 19.2H48.4615L48.4616 14.4H46.1539L46.1538 12H41.5384V9.6H34.6154V7.2H27.6923V9.6H20.7692V12H16.1539V14.4H13.8462V16.8H11.5385V21.6H9.23072V38.4H11.5385V43.2L13.8462 43.2V45.6L16.1539 45.6V48H18.4616V50.4L23.0769 50.4V52.8H25.3846L25.3846 45.6H18.4615L18.4616 40.8H20.7692V43.2H25.3846V40.8H27.6923L27.6923 38.4H20.7693L20.7692 36H18.4615L18.4616 31.2H16.1539V26.4L18.4615 26.4V16.8H23.0769V19.2H39.2307V16.8H43.8461V26.4L46.1538 26.4V33.6H43.8461V36H41.5384V38.4H34.6154V40.8H36.9231V52.8H39.2307Z" fill="#F31D9E"/>
<g filter="url(#filter9_d)">
<path class="inside" d="M18.4616 40.8H16.1539V38.4H18.4616V40.8Z" fill="white"/>
<path class="inside" d="M39.2307 52.8V50.4L43.8461 50.4V48H46.1539V45.6L48.4615 45.6V43.2L50.7693 43.2V38.4H53.0769L53.077 24H50.7693L50.7692 19.2H48.4615L48.4616 14.4H46.1539L46.1538 12H41.5384V9.6H34.6154V7.2H27.6923V9.6H20.7692V12H16.1539V14.4H13.8462V16.8H11.5385V21.6H9.23072V38.4H11.5385V43.2L13.8462 43.2V45.6L16.1539 45.6V48H18.4616V50.4L23.0769 50.4V52.8H25.3846L25.3846 45.6H18.4615L18.4616 40.8H16.1539V38.4H18.4616V40.8H20.7692V43.2H25.3846V40.8H27.6923L27.6923 38.4H20.7693L20.7692 36H18.4615L18.4616 31.2H16.1539V26.4L18.4615 26.4V16.8H23.0769V19.2H39.2307V16.8H43.8461V26.4L46.1538 26.4V33.6H43.8461V36H41.5384V38.4H34.6154V40.8H36.9231V52.8H39.2307Z" fill="white"/>
</g>
</g>
<defs>
<filter id="filter9_d" x="0" y="0" width="62.1917" height="62.1918" filterUnits="userSpaceOnUse" color-interpolation-filters="sRGB">
<feFlood flood-opacity="0" result="BackgroundImageFix"/>
<feColorMatrix in="SourceAlpha" type="matrix" values="0 0 0 0 0 0 0 0 0 0 0 0 0 0 0 0 0 0 127 0" result="hardAlpha"/>
<feOffset dx="2.19175" dy="2.19175"/>
<feComposite in2="hardAlpha" operator="out"/>
<feColorMatrix type="matrix" values="0 0 0 0 0 0 0 0 0 0 0 0 0 0 0 0 0 0 1 0"/>
<feBlend mode="normal" in2="BackgroundImageFix" result="effect1_dropShadow"/>
<feBlend mode="normal" in="SourceGraphic" in2="effect1_dropShadow" result="shape"/>
</filter>
<clipPath id="clip9">
<rect width="60.2731" height="60.2731" fill="white" transform="translate(0.177246)"/>
</clipPath>
</defs>
</svg>
