<svg width="50" height="105" viewBox="0 0 50 105" fill="none" xmlns="http://www.w3.org/2000/svg">
<path fill-rule="evenodd" clip-rule="evenodd" d="M44.1659 0.0722046V2.83156H41.4279V5.59092H38.6899V8.35028H35.952V11.1096H33.214V16.6284H30.476V22.1471H5.83433V24.9064H0.358398V30.4251H3.09637V52.5H5.83433V77.3342H8.5723V82.853H11.3103V102.168H16.7862V104.928H33.214V102.168H38.6899V82.853H41.4279V71.8155H44.1659V60.7781H41.4279V58.0187H44.1659V55.2594H41.4279V52.5H44.1659V49.7407H46.9039V24.9064H44.1659V22.1471H35.952V13.869H38.6899V11.1096H41.4279V8.35028H44.1659V5.59092H46.9039V2.83156H49.6418V0.0722046H44.1659ZM38.6899 55.2594H41.4279V58.0187H38.6899V55.2594ZM35.952 55.2594V52.5H38.6899V55.2594H35.952ZM30.476 52.5V58.0187H33.214V55.2594H35.952V58.0187H38.6899V60.7781H27.7381V52.5H30.476ZM30.476 52.5V46.9813H33.214V52.5H30.476ZM8.5723 46.9813V52.5H5.83433V46.9813H8.5723ZM11.3103 44.2219V46.9813H8.5723V44.2219H11.3103ZM11.3103 44.2219V41.4626H16.7862V44.2219H11.3103ZM30.476 80.0936V82.853H19.5242V80.0936H30.476ZM30.476 66.2968H33.214V63.5374H30.476V66.2968ZM11.3103 63.5374H14.0482V55.2594H11.3103V58.0187H8.5723V60.7781H11.3103V63.5374ZM25.0001 60.7781V55.2594H22.2621V58.0187H19.5242V55.2594H16.7862V60.7781H25.0001ZM16.7862 49.7407V52.5H14.0482V49.7407H16.7862ZM41.4279 30.4251V27.6658H30.476V30.4251H41.4279ZM19.5242 30.4251V27.6658H5.83433V30.4251H19.5242Z" fill="#FF73D4"/>
</svg>
