<svg width="92" height="105" viewBox="0 0 92 105" fill="none" xmlns="http://www.w3.org/2000/svg">
<path fill-rule="evenodd" clip-rule="evenodd" d="M0.823486 0.0722046H91.1764V30.4251H88.4385V60.7781H85.7005V91.131H82.9625V93.8904H77.4866V96.6497H69.2727V99.4091H58.3208V102.168H50.1069V104.928H44.631V102.168H33.6791V99.4091H25.4652V96.6497H14.5133V93.8904H9.03739V80.0936H6.29942V49.7407H3.56145V19.3877H0.823486V0.0722046ZM55.5828 82.853V80.0936H63.7967V77.3342H69.2727V69.0562H72.0107V41.4626H30.9411V30.4251H74.7486V19.3877H17.2513V27.6658H19.9893V52.5H61.0588V66.2968H58.3208V69.0562H52.8449V71.8155H39.155V69.0562H33.6791V60.7781H22.7272V77.3342H28.2032V80.0936H39.155V82.853H55.5828Z" fill="#FF73D4"/>
</svg>
