<svg width="60" height="61" viewBox="0 0 60 61" fill="none" xmlns="http://www.w3.org/2000/svg">
<g clip-path="url(#clip0)">
<g filter="url(#filter0_d)">
<path d="M26.301 22.3234H32.8762V24.5557H35.068V26.7881H37.2597V33.4851H35.068V35.7174H32.8762V37.9497H26.301V35.7174H24.1092V33.4851H21.9175V26.7881H24.1092V24.5557H26.301V22.3234Z" fill="#F31D9E"/>
<path fill-rule="evenodd" clip-rule="evenodd" d="M19.7257 1.52588e-05H41.6432V2.23235H50.4102V4.46469H52.602V6.69703H54.7937V8.92936H56.9855V15.6264H59.1772V44.6468H56.9855V51.3438H54.7937V53.5761H52.602V55.8084H50.4102V58.0408H43.835V60.2731H15.3422V58.0408H8.767V55.8084H6.57525V53.5761H4.3835V51.3438H2.19175V40.1821H0V20.091H2.19175V8.92936H4.3835V6.69703H6.57525V4.46469H8.767V2.23235H19.7257V1.52588e-05ZM32.8762 46.8791V44.6468H37.2597V42.4144H39.4515V40.1821H41.6432V37.9497H43.835V33.4851H46.0267V26.7881H43.835V22.3234H41.6432V20.091H39.4515V17.8587H37.2597V15.6264H32.8762V13.394H26.301V15.6264H21.9175V17.8587H19.7257V20.091H17.534V22.3234H15.3422V26.7881H13.1505V33.4851H15.3422V37.9497H17.534V40.1821H19.7257V42.4144H21.9175V44.6468H26.301V46.8791H32.8762ZM48.2185 17.8587V11.1617H41.6432V17.8587H48.2185Z" fill="#F31D9E"/>
</g>
<g filter="url(#filter1_d)">
<path class="inside" fill-rule="evenodd" clip-rule="evenodd" d="M32.8762 44.6468V46.8791H26.301V44.6468H21.9175V42.4144H19.7257V40.1821H17.534V37.9497H15.3422V33.4851H13.1505V26.7881H15.3422V22.3234H17.534V20.091H19.7257V17.8587H21.9175V15.6264H26.301V13.394H32.8762V15.6264H37.2597V17.8587H39.4515V20.091H41.6432V22.3234H43.835V26.7881H46.0267V33.4851H43.835V37.9497H41.6432V40.1821H39.4515V42.4144H37.2597V44.6468H32.8762ZM32.8762 22.3234V24.5557H35.068V26.7881H37.2597V33.4851H35.068V35.7174H32.8762V37.9497H26.301V35.7174H24.1092V33.4851H21.9175V26.7881H24.1092V24.5557H26.301V22.3234H32.8762Z" fill="white"/>
<path class="inside" d="M48.2185 11.1617V17.8587H41.6432V11.1617H48.2185Z" fill="white"/>
</g>
</g>
<defs>
<filter id="filter0_d" x="0" y="1.52588e-05" width="61.1772" height="62.2731" filterUnits="userSpaceOnUse" color-interpolation-filters="sRGB">
<feFlood flood-opacity="0" result="BackgroundImageFix"/>
<feColorMatrix in="SourceAlpha" type="matrix" values="0 0 0 0 0 0 0 0 0 0 0 0 0 0 0 0 0 0 127 0" result="hardAlpha"/>
<feOffset dx="2" dy="2"/>
<feComposite in2="hardAlpha" operator="out"/>
<feColorMatrix type="matrix" values="0 0 0 0 0 0 0 0 0 0 0 0 0 0 0 0 0 0 1 0"/>
<feBlend mode="normal" in2="BackgroundImageFix" result="effect1_dropShadow"/>
<feBlend mode="normal" in="SourceGraphic" in2="effect1_dropShadow" result="shape"/>
</filter>
<filter id="filter1_d" x="0" y="1.52588e-05" width="61.1772" height="62.2731" filterUnits="userSpaceOnUse" color-interpolation-filters="sRGB">
<feFlood flood-opacity="0" result="BackgroundImageFix"/>
<feColorMatrix in="SourceAlpha" type="matrix" values="0 0 0 0 0 0 0 0 0 0 0 0 0 0 0 0 0 0 127 0" result="hardAlpha"/>
<feOffset dx="2" dy="2"/>
<feComposite in2="hardAlpha" operator="out"/>
<feColorMatrix type="matrix" values="0 0 0 0 0 0 0 0 0 0 0 0 0 0 0 0 0 0 1 0"/>
<feBlend mode="normal" in2="BackgroundImageFix" result="effect1_dropShadow"/>
<feBlend mode="normal" in="SourceGraphic" in2="effect1_dropShadow" result="shape"/>
</filter>
<clipPath id="clip0">
<rect width="59.1772" height="60.2731" fill="white"/>
</clipPath>
</defs>
</svg>
