<svg width="60" height="61" viewBox="0 0 60 61" fill="none" xmlns="http://www.w3.org/2000/svg">
<g clip-path="url(#clip8)">
<path d="M26.2222 22.2222H32.7778V24.4444H34.963V26.6667H37.1481V33.3333H34.963V35.5556H32.7778V37.7778H26.2222V35.5556H24.037V33.3333H21.8519V26.6667H24.037V24.4444H26.2222V22.2222Z" fill="#F31D9E"/>
<path fill-rule="evenodd" clip-rule="evenodd" d="M19.6667 0H41.5185V2.22222H50.2593V4.44444H52.4444V6.66667H54.6296V8.88889H56.8148V15.5556H59V44.4444H56.8148V51.1111H54.6296V53.3333H52.4444V55.5556H50.2593V57.7778H43.7037V60H15.2963V57.7778H8.74074V55.5556H6.55556V53.3333H4.37037V51.1111H2.18519V40H0V20H2.18519V8.88889H4.37037V6.66667H6.55556V4.44444H8.74074V2.22222H19.6667V0ZM32.7778 46.6667V44.4444H37.1481V42.2222H39.3333V40H41.5185V37.7778H43.7037V33.3333H45.8889V26.6667H43.7037V22.2222H41.5185V20H39.3333V17.7778H37.1481V15.5556H32.7778V13.3333H26.2222V15.5556H21.8519V17.7778H19.6667V20H17.4815V22.2222H15.2963V26.6667H13.1111V33.3333H15.2963V37.7778H17.4815V40H19.6667V42.2222H21.8519V44.4444H26.2222V46.6667H32.7778ZM48.0741 17.7778V11.1111H41.5185V17.7778H48.0741Z" fill="#F31D9E"/>
<g filter="url(#filter8_d)">
<path class="inside" fill-rule="evenodd" clip-rule="evenodd" d="M32.7778 44.4444V46.6667H26.2222V44.4444H21.8519V42.2222H19.6667V40H17.4815V37.7778H15.2963V33.3333H13.1111V26.6667H15.2963V22.2222H17.4815V20H19.6667V17.7778H21.8519V15.5556H26.2222V13.3333H32.7778V15.5556H37.1481V17.7778H39.3333V20H41.5185V22.2222H43.7037V26.6667H45.8889V33.3333H43.7037V37.7778H41.5185V40H39.3333V42.2222H37.1481V44.4444H32.7778ZM32.7778 22.2222V24.4444H34.963V26.6667H37.1481V33.3333H34.963V35.5556H32.7778V37.7778H26.2222V35.5556H24.037V33.3333H21.8519V26.6667H24.037V24.4444H26.2222V22.2222H32.7778Z" fill="white"/>
<path class="inside" d="M48.0741 11.1111V17.7778H41.5185V11.1111H48.0741Z" fill="white"/>
</g>
</g>
<defs>
<filter id="filter8_d" x="0" y="0" width="61.1917" height="62.1917" filterUnits="userSpaceOnUse" color-interpolation-filters="sRGB">
<feFlood flood-opacity="0" result="BackgroundImageFix"/>
<feColorMatrix in="SourceAlpha" type="matrix" values="0 0 0 0 0 0 0 0 0 0 0 0 0 0 0 0 0 0 127 0" result="hardAlpha"/>
<feOffset dx="2.19175" dy="2.19175"/>
<feComposite in2="hardAlpha" operator="out"/>
<feColorMatrix type="matrix" values="0 0 0 0 0 0 0 0 0 0 0 0 0 0 0 0 0 0 1 0"/>
<feBlend mode="normal" in2="BackgroundImageFix" result="effect1_dropShadow"/>
<feBlend mode="normal" in="SourceGraphic" in2="effect1_dropShadow" result="shape"/>
</filter>
<clipPath id="clip8">
<rect width="59.1772" height="60.2731" fill="white"/>
</clipPath>
</defs>
</svg>
