<svg width="47" height="48" viewBox="0 0 47 48" fill="none" xmlns="http://www.w3.org/2000/svg">
<path d="M21.1842 18.2225H26.2874V19.9551H27.9884V21.6877H29.6895V26.8853H27.9884V28.6179H26.2874V30.3505H21.1842V28.6179H19.4831V26.8853H17.7821V21.6877H19.4831V19.9551H21.1842V18.2225Z" fill="#F31D9E"/>
<path fill-rule="evenodd" clip-rule="evenodd" d="M16.081 0.896935H33.0916V2.62949H39.8958V4.36205H41.5969V6.09461H43.298V7.82717H44.999V13.0249H46.7001V35.5481H44.999V40.7458H43.298V42.4784H41.5969V44.2109H39.8958V45.9435H34.7927V47.6761H12.6789V45.9435H7.57572V44.2109H5.87466V42.4784H4.1736V40.7458H2.47254V32.083H0.771484V16.49H2.47254V7.82717H4.1736V6.09461H5.87466V4.36205H7.57572V2.62949H16.081V0.896935ZM26.2874 37.2807V35.5481H29.6895V33.8156H31.3905V32.083H33.0916V30.3505H34.7927V26.8853H36.4937V21.6877H34.7927V18.2225H33.0916V16.49H31.3905V14.7574H29.6895V13.0249H26.2874V11.2923H21.1842V13.0249H17.7821V14.7574H16.081V16.49H14.38V18.2225H12.6789V21.6877H10.9778V26.8853H12.6789V30.3505H14.38V32.083H16.081V33.8156H17.7821V35.5481H21.1842V37.2807H26.2874ZM38.1948 14.7574V9.55973H33.0916V14.7574H38.1948Z" fill="#F31D9E"/>
<path class="inside" fill-rule="evenodd" clip-rule="evenodd" d="M26.2874 35.5481V37.2807H21.1842V35.5481H17.7821V33.8156H16.081V32.083H14.38V30.3505H12.6789V26.8853H10.9778V21.6877H12.6789V18.2225H14.38V16.49H16.081V14.7574H17.7821V13.0249H21.1842V11.2923H26.2874V13.0249H29.6895V14.7574H31.3905V16.49H33.0916V18.2225H34.7927V21.6877H36.4937V26.8853H34.7927V30.3505H33.0916V32.083H31.3905V33.8156H29.6895V35.5481H26.2874ZM26.2874 18.2225V19.9551H27.9884V21.6877H29.6895V26.8853H27.9884V28.6179H26.2874V30.3505H21.1842V28.6179H19.4831V26.8853H17.7821V21.6877H19.4831V19.9551H21.1842V18.2225H26.2874Z" fill="white"/>
<path d="M38.1948 9.55974V14.7574H33.0916V9.55974H38.1948Z" class="inside" fill="white"/>
</svg>
