<svg width="94" height="105" viewBox="0 0 94 105" fill="none" xmlns="http://www.w3.org/2000/svg">
<path d="M41.5241 0.0722046V2.83156H36.0482V5.59092H33.3102V8.35028H27.8343V11.1096H22.3583V13.869H16.8824V16.6284H11.4065V19.3877H8.66849V22.1471H3.19256V24.9064H0.45459V80.0936H5.93053V82.853H11.4065V85.6123H14.1444V88.3717H30.5722V85.6123H33.3102V80.0936H36.0482V33.1845H27.8343V80.0936H25.0963V82.853H19.6204V80.0936H14.1444V77.3342H11.4065V74.5749H8.66849V27.6658H11.4065V24.9064H16.8824V22.1471H22.3583V19.3877H27.8343V16.6284H33.3102V13.869H36.0482V11.1096H41.5241V8.35028H52.476V11.1096H57.9519V13.869H63.4279V16.6284H66.1658V19.3877H71.6418V22.1471H77.1177V24.9064H82.5936V27.6658H85.3316V30.4251H88.0696V74.5749H85.3316V77.3342H79.8557V80.0936H74.3797V82.853H68.9038V85.6123H63.4279V88.3717H60.6899V91.131H55.214V93.8904H49.738V96.6497H44.2621V93.8904H38.7861V91.131H33.3102V93.8904H30.5722V96.6497H33.3102V99.4091H38.7861V102.168H44.2621V104.928H49.738V102.168H55.214V99.4091H60.6899V96.6497H63.4279V93.8904H68.9038V91.131H74.3797V88.3717H79.8557V85.6123H85.3316V82.853H88.0696V80.0936H93.5455V24.9064H90.8075V22.1471H85.3316V19.3877H82.5936V16.6284H77.1177V13.869H71.6418V11.1096H66.1658V8.35028H63.4279V5.59092H57.9519V2.83156H52.476V0.0722046H41.5241Z" fill="#FF73D4"/>
<path d="M49.738 30.4251V33.1845H44.2621V35.9439H41.5241V41.4626H38.7861V46.9813H41.5241V52.5H47V55.2594H66.1658V58.0187H68.9038V60.7781H71.6418V63.5374H68.9038V66.2968H49.738V63.5374H47V58.0187H38.7861V66.2968H41.5241V69.0562H44.2621V71.8155H52.476V74.5749H66.1658V71.8155H74.3797V69.0562H77.1177V52.5H71.6418V49.7407H60.6899V46.9813H49.738V44.2219H47V41.4626H49.738V38.7032H66.1658V41.4626H68.9038V46.9813H77.1177V38.7032H74.3797V35.9439H71.6418V33.1845H63.4279V30.4251H49.738Z" fill="#FF73D4"/>
</svg>
