<svg width="61" height="61" viewBox="0 0 61 61" fill="none" xmlns="http://www.w3.org/2000/svg">
<g clip-path="url(#clip10)">
<path fill-rule="evenodd" clip-rule="evenodd" d="M4.85268 0.45168L4.86012 2.74143L2.57037 2.74886L2.57781 5.03861L0.288066 5.04604L0.451664 55.4204L2.74141 55.413L2.74884 57.7027L5.03859 57.6953L5.04603 59.9851L55.4204 59.8215L55.413 57.5317L57.7027 57.5243L57.6953 55.2345L59.985 55.2271L59.8214 4.8527L57.5317 4.86014L57.5243 2.57039L55.2345 2.57783L55.2271 0.288083L4.85268 0.45168ZM50.8037 48.3876L50.7443 30.0696L48.4545 30.0771L48.4396 25.4976L46.1499 25.505L46.1425 23.2153L34.6937 23.2525L34.7012 25.5422L32.4114 25.5496L32.404 23.2599L23.245 23.2896L23.3268 48.4768L32.4858 48.4471L32.4337 32.4189L34.7235 32.4114L34.716 30.1217L41.5853 30.0994L41.6448 48.4173L50.8037 48.3876ZM18.7473 48.4917L18.6655 23.3045L9.50654 23.3343L9.58834 48.5215L18.7473 48.4917ZM16.3609 18.7325L16.3683 21.0222L14.0786 21.0296L14.0712 18.7399L9.49166 18.7548L9.47679 14.1753L11.7665 14.1678L11.7591 11.8781L18.6283 11.8558L18.6506 18.725L16.3609 18.7325Z" fill="#F31D9E"/>
<g filter="url(#filter10_d)">
<path class="inside" fill-rule="evenodd" clip-rule="evenodd" d="M50.7443 30.0696L48.4545 30.0771L48.4396 25.4976L46.1499 25.505L46.1425 23.2153L34.6937 23.2525L34.7012 25.5422L32.4114 25.5496L32.404 23.2599L23.245 23.2896L23.3268 48.4768L32.4858 48.4471L32.4337 32.4189L34.7235 32.4114L34.716 30.1217L41.5853 30.0994L41.6448 48.4173L50.8037 48.3876L50.7443 30.0696ZM18.7473 48.4917L18.6655 23.3045L9.50654 23.3343L9.58834 48.5215L18.7473 48.4917Z" fill="white"/>
<path class="inside" d="M16.3683 21.0222L16.3609 18.7325L18.6506 18.725L18.6283 11.8558L11.7591 11.8781L11.7665 14.1678L9.47679 14.1753L9.49166 18.7548L14.0712 18.7399L14.0786 21.0296L16.3683 21.0222Z" fill="white"/>
</g>
</g>
<defs>
<filter id="filter10_d" x="0.273193" y="0.273193" width="61.9185" height="61.9185" filterUnits="userSpaceOnUse" color-interpolation-filters="sRGB">
<feFlood flood-opacity="0" result="BackgroundImageFix"/>
<feColorMatrix in="SourceAlpha" type="matrix" values="0 0 0 0 0 0 0 0 0 0 0 0 0 0 0 0 0 0 127 0" result="hardAlpha"/>
<feOffset dx="2.19175" dy="2.19175"/>
<feComposite in2="hardAlpha" operator="out"/>
<feColorMatrix type="matrix" values="0 0 0 0 0 0 0 0 0 0 0 0 0 0 0 0 0 0 1 0"/>
<feBlend mode="normal" in2="BackgroundImageFix" result="effect1_dropShadow"/>
<feBlend mode="normal" in="SourceGraphic" in2="effect1_dropShadow" result="shape"/>
</filter>
<clipPath id="clip10">
<rect width="60.2731" height="60.2731" fill="white"/>
</clipPath>
</defs>
</svg>
