<svg width="47" height="46" viewBox="0 0 47 46" fill="none" xmlns="http://www.w3.org/2000/svg">
<path fill-rule="evenodd" clip-rule="evenodd" d="M4.43008 0.496666V2.2382H2.68855V3.97973H0.947021V42.2934H2.68855V44.0349H4.43008V45.7765H42.7438V44.0349H44.4853V42.2934H46.2268V3.97973H44.4853V2.2382H42.7438V0.496666H4.43008ZM39.2607 37.0688V23.1366H37.5192V19.6535H35.7776V17.912H27.07V19.6535H25.3284V17.912H18.3623V37.0688H25.3284V24.8781H27.07V23.1366H32.2946V37.0688H39.2607ZM14.8793 37.0688V17.912H7.91314V37.0688H14.8793ZM13.1377 14.4289V16.1704H11.3962V14.4289H7.91314V10.9458H9.65467V9.20432H14.8793V14.4289H13.1377Z" fill="#F31D9E"/>
<path class="inside" fill-rule="evenodd" clip-rule="evenodd" d="M39.2607 23.1366H37.5192V19.6535H35.7776V17.912H27.07V19.6535H25.3284V17.912H18.3623V37.0688H25.3284V24.8781H27.07V23.1366H32.2946V37.0688H39.2607V23.1366ZM14.8793 37.0688V17.912H7.91314V37.0688H14.8793Z" fill="white"/>
<path class="inside" d="M13.1377 16.1704V14.4289H14.8793V9.20432H9.65467V10.9458H7.91314V14.4289H11.3962V16.1704H13.1377Z" fill="white"/>
</svg>
