<svg width="106" height="65" viewBox="0 0 106 65" fill="none" xmlns="http://www.w3.org/2000/svg">
<path d="M17.4064 0.767395V3.52675H11.9305V6.28611H0.978638V17.3235H9.19254V14.5642H17.4064V11.8048H22.8824V9.04547H33.8343V11.8048H39.3102V14.5642H47.5241V17.3235H58.476V14.5642H66.6899V11.8048H72.1658V9.04547H80.3797V11.8048H85.8556V14.5642H94.0695V17.3235H105.021V6.28611H91.3316V3.52675H85.8556V0.767395H66.6899V3.52675H61.2139V6.28611H44.7861V3.52675H39.3102V0.767395H17.4064Z" fill="#FF73D4"/>
<path d="M17.4064 25.6016V28.361H11.9305V31.1203H0.978638V39.3984H14.6685V36.6391H20.1444V33.8797H36.5722V36.6391H42.0482V39.3984H63.9519V36.6391H69.4278V33.8797H83.1177V36.6391H88.5936V39.3984H105.021V31.1203H94.0695V28.361H88.5936V25.6016H63.9519V28.361H58.476V31.1203H47.5241V28.361H42.0482V25.6016H17.4064Z" fill="#FF73D4"/>
<path d="M17.4064 50.4359V53.1952H11.9305V55.9546H0.978638V64.2326H14.6685V61.4733H20.1444V58.7139H36.5722V61.4733H42.0482V64.2326H63.9519V61.4733H69.4278V58.7139H83.1177V61.4733H88.5936V64.2326H105.021V55.9546H94.0695V53.1952H88.5936V50.4359H63.9519V53.1952H58.476V55.9546H47.5241V53.1952H39.3102V50.4359H17.4064Z" fill="#FF73D4"/>
</svg>
