<svg width="106" height="89" viewBox="0 0 106 89" fill="none" xmlns="http://www.w3.org/2000/svg">
<path d="M0.978638 0.350281H20.1444V3.10964H22.8824V8.62836H25.6203V14.1471H28.3583V19.6658H31.0963V22.4251H33.8343V27.9439H36.5722V33.4626H39.3102V36.2219H42.0482V41.7407H44.7861V47.2594H47.5241V50.0187H50.2621V55.5374H55.738V50.0187H58.476V44.5H61.2139V41.7407H63.9519V36.2219H66.6899V30.7032H69.4278V27.9439H72.1658V22.4251H74.9038V16.9064H77.6417V11.3877H80.3797V8.62836H83.1177V3.10964H85.8556V0.350281H105.021V3.10964H102.283V8.62836H99.5455V11.3877H96.8075V16.9064H94.0695V22.4251H91.3316V27.9439H88.5936V30.7032H85.8556V36.2219H83.1177V41.7407H80.3797V44.5H77.6417V50.0187H74.9038V55.5374H72.1658V61.0562H69.4278V63.8155H66.6899V69.3342H63.9519V74.853H61.2139V80.3717H58.476V83.131H55.738V88.6497H50.2621V85.8904H47.5241V80.3717H44.7861V74.853H42.0482V72.0936H39.3102V66.5749H36.5722V61.0562H33.8343V55.5374H31.0963V52.7781H28.3583V47.2594H25.6203V41.7407H22.8824V36.2219H20.1444V33.4626H17.4064V27.9439H14.6685V22.4251H11.9305V19.6658H9.19254V14.1471H6.45457V8.62836H3.71661V3.10964H0.978638V0.350281Z" fill="#FF73D4"/>
<path d="M77.6417 11.3877H74.9038V14.1471H72.1658V19.6658H69.4278V25.1845H66.6899V27.9439H63.9519V33.4626H61.2139V38.9813H58.476V41.7407H55.738V47.2594H53V50.0187H50.2621V44.5H47.5241V38.9813H44.7861V33.4626H42.0482V30.7032H39.3102V25.1845H36.5722V19.6658H33.8343V16.9064H31.0963V11.3877H28.3583V5.869H25.6203V3.10964H22.8824V0.350281H42.0482V5.869H44.7861V11.3877H47.5241V14.1471H50.2621V19.6658H55.738V14.1471H58.476V8.62836H61.2139V3.10964H63.9519V0.350281H80.3797V5.869H77.6417V11.3877Z" fill="#FF73D4"/>
</svg>
