<svg width="94" height="101" viewBox="0 0 94 101" fill="none" xmlns="http://www.w3.org/2000/svg">
<path fill-rule="evenodd" clip-rule="evenodd" d="M38.7861 0.831543V3.5909H36.0482V6.35026H30.5722V9.10962H25.0963V11.869H19.6204V14.6283H14.1444V17.3877H11.4065V20.1471H5.93053V25.6658H8.66849V28.4251H3.19256V25.6658H0.45459V75.3342H3.19256V72.5749H8.66849V75.3342H5.93053V78.0936H8.66849V80.8529H14.1444V83.6123H16.8824V86.3717H22.3583V89.131H27.8343V91.8904H33.3102V94.6497H36.0482V97.4091H41.5241V100.168H44.2621V80.8529H41.5241V78.0936H44.2621V50.5H41.5241V47.7406H36.0482V44.9813H33.3102V42.2219H38.7861V44.9813H44.2621V47.7406H49.738V44.9813H55.214V42.2219H60.6899V39.4626H66.1658V42.2219H63.4279V44.9813H57.9519V47.7406H52.476V50.5H49.738V78.0936H52.476V80.8529H49.738V100.168H52.476V97.4091H57.9519V94.6497H60.6899V91.8904H66.1658V89.131H71.6418V86.3717H77.1177V83.6123H82.5936V80.8529H85.3316V78.0936H88.0696V75.3342H85.3316V72.5749H90.8075V75.3342H93.5455V25.6658H90.8075V28.4251H85.3316V25.6658H88.0696V20.1471H82.5936V17.3877H79.8557V14.6283H74.3797V11.869H68.9038V9.10962H63.4279V6.35026H57.9519V3.5909H55.214V0.831543H49.738V17.3877H52.476V20.1471H57.9519V22.9064H63.4279V25.6658H66.1658V28.4251H60.6899V25.6658H55.214V22.9064H49.738V20.1471H44.2621V22.9064H38.7861V25.6658H33.3102V22.9064H36.0482V20.1471H41.5241V17.3877H44.2621V0.831543H38.7861ZM27.8343 28.4251V25.6658H33.3102V28.4251H27.8343ZM22.3583 31.1845V28.4251H27.8343V31.1845H22.3583ZM27.8343 39.4626V36.7032H25.0963V33.9438H22.3583V31.1845H14.1444V28.4251H8.66849V31.1845H14.1444V33.9438H16.8824V67.0561H14.1444V69.8155H8.66849V72.5749H14.1444V69.8155H25.0963V72.5749H30.5722V75.3342H36.0482V78.0936H41.5241V75.3342H36.0482V72.5749H33.3102V69.8155H27.8343V67.0561H22.3583V64.2968H19.6204V36.7032H22.3583V39.4626H27.8343ZM27.8343 39.4626V42.2219H33.3102V39.4626H27.8343ZM71.6418 31.1845H79.8557V28.4251H85.3316V31.1845H82.5936V33.9438H77.1177V67.0561H82.5936V69.8155H85.3316V72.5749H79.8557V69.8155H68.9038V72.5749H63.4279V69.8155H66.1658V67.0561H71.6418V64.2968H74.3797V36.7032H71.6418V39.4626H66.1658V36.7032H68.9038V33.9438H71.6418V31.1845ZM57.9519 75.3342V72.5749H63.4279V75.3342H57.9519ZM57.9519 75.3342H52.476V78.0936H57.9519V75.3342ZM71.6418 31.1845V28.4251H66.1658V31.1845H71.6418Z" fill="#FF73D4"/>
</svg>
